# xmcd CD database file
#
# Track frame offsets:
#	150
#	10171
#	21631
#	29232
#	40181
#	52727
#	62784
#	75231
#	83598
#	93770
#	103908
#	115941
#	124502
#
# Disc length: 1806 seconds
#
# Revision: 8
# Processed by: cddbd v1.5.2PL0 Copyright (c) Steve Scherf et al.
# Submitted via: CDex 2.18
#
DISCID=9a070c0d
DTITLE=Johnny Cash - Johnny Cash Collection CD 2
DYEAR=2005
DGENRE=Country
TTITLE0=Ballad of a Teenage Queen
TTITLE1=Big River
TTITLE2=Come in Stranger
TTITLE3=Cry, Cry, Cry
TTITLE4=Folsom Prison Blues
TTITLE5=Get Rhythm
TTITLE6=Give My Love to Rose
TTITLE7=Goodbye Little Darling
TTITLE8=Guess Things Happen That Way
TTITLE9=Hey Porter
TTITLE10=Home of the Blues
TTITLE11=I Forgot to Remember to Forget
TTITLE12=I Love You Because
EXTD=YEAR: 2005
EXTT0=
EXTT1=
EXTT2=
EXTT3=
EXTT4=
EXTT5=
EXTT6=
EXTT7=
EXTT8=
EXTT9=
EXTT10=
EXTT11=
EXTT12=
PLAYORDER=
